<svg xmlns="http://www.w3.org/2000/svg" viewBox="0 0 512 512" fill="none">
  <rect width="512" height="512" rx="80" fill="#4F46E5"/>
  <path d="M256 120C220 120 192 148 192 184V232H128V184C128 112.4 186.4 56 256 56C325.6 56 384 112.4 384 184V232H320V184C320 148 292 120 256 120Z" fill="white"/>
  <rect x="128" y="232" width="256" height="224" rx="32" fill="white"/>
  <path d="M256 280C278.1 280 296 297.9 296 320C296 335.4 287.1 348.8 274.1 355.5L284 400H228L237.9 355.5C224.9 348.8 216 335.4 216 320C216 297.9 233.9 280 256 280Z" fill="#4F46E5"/>
</svg>
